<mxfile host="app.diagrams.net" agent="Mozilla/5.0 (Macintosh; Intel Mac OS X 10_15_7) AppleWebKit/537.36 (KHTML, like Gecko) Chrome/129.0.0.0 Safari/537.36" version="24.7.17">
  <diagram name="Sujog" id="kL343lnGAUq5D-zRPWat">
    <mxGraphModel dx="921" dy="651" grid="1" gridSize="10" guides="1" tooltips="1" connect="1" arrows="1" fold="1" page="1" pageScale="1" pageWidth="1100" pageHeight="850" math="0" shadow="0">
      <root>
        <mxCell id="0" />
        <mxCell id="1" parent="0" />
        <mxCell id="0X2j5_aVwfWrf6C6MiM_-1" value="&lt;b&gt;&lt;font style=&quot;font-size: 18px;&quot;&gt;Sujog&lt;/font&gt;&lt;/b&gt;" style="rounded=1;whiteSpace=wrap;html=1;" vertex="1" parent="1">
          <mxGeometry x="370" y="270" width="160" height="60" as="geometry" />
        </mxCell>
        <mxCell id="0X2j5_aVwfWrf6C6MiM_-2" value="&lt;b&gt;Seeker&lt;/b&gt;" style="shape=actor;whiteSpace=wrap;html=1;" vertex="1" parent="1">
          <mxGeometry x="20" y="230" width="50" height="100" as="geometry" />
        </mxCell>
        <mxCell id="0X2j5_aVwfWrf6C6MiM_-3" value="&lt;b&gt;Provider&lt;/b&gt;" style="shape=actor;whiteSpace=wrap;html=1;" vertex="1" parent="1">
          <mxGeometry x="800" y="160" width="50" height="100" as="geometry" />
        </mxCell>
        <mxCell id="0X2j5_aVwfWrf6C6MiM_-4" value="&lt;b&gt;Admin&lt;/b&gt;" style="shape=actor;whiteSpace=wrap;html=1;" vertex="1" parent="1">
          <mxGeometry x="800" y="330" width="50" height="100" as="geometry" />
        </mxCell>
        <mxCell id="0X2j5_aVwfWrf6C6MiM_-5" value="&lt;b&gt;CV Create&lt;/b&gt;" style="rounded=1;whiteSpace=wrap;html=1;" vertex="1" parent="1">
          <mxGeometry x="150" y="110" width="120" height="40" as="geometry" />
        </mxCell>
        <mxCell id="0X2j5_aVwfWrf6C6MiM_-6" value="&lt;b&gt;Search&lt;/b&gt;" style="rounded=1;whiteSpace=wrap;html=1;" vertex="1" parent="1">
          <mxGeometry x="150" y="190" width="120" height="40" as="geometry" />
        </mxCell>
        <mxCell id="0X2j5_aVwfWrf6C6MiM_-7" value="&lt;b&gt;Apply&lt;/b&gt;" style="rounded=1;whiteSpace=wrap;html=1;" vertex="1" parent="1">
          <mxGeometry x="150" y="280" width="120" height="40" as="geometry" />
        </mxCell>
        <mxCell id="0X2j5_aVwfWrf6C6MiM_-8" value="&lt;b&gt;Filter Search&lt;/b&gt;" style="rounded=1;whiteSpace=wrap;html=1;" vertex="1" parent="1">
          <mxGeometry x="150" y="370" width="120" height="40" as="geometry" />
        </mxCell>
        <mxCell id="0X2j5_aVwfWrf6C6MiM_-9" value="&lt;b&gt;Division-wise Search&lt;/b&gt;" style="rounded=1;whiteSpace=wrap;html=1;" vertex="1" parent="1">
          <mxGeometry x="150" y="450" width="120" height="40" as="geometry" />
        </mxCell>
        <mxCell id="0X2j5_aVwfWrf6C6MiM_-10" value="&lt;b&gt;Form Fill Up&lt;/b&gt;" style="rounded=1;whiteSpace=wrap;html=1;" vertex="1" parent="1">
          <mxGeometry x="600" y="110" width="120" height="40" as="geometry" />
        </mxCell>
        <mxCell id="0X2j5_aVwfWrf6C6MiM_-11" value="&lt;b&gt;Contact&lt;/b&gt;" style="rounded=1;whiteSpace=wrap;html=1;" vertex="1" parent="1">
          <mxGeometry x="600" y="190" width="120" height="40" as="geometry" />
        </mxCell>
        <mxCell id="0X2j5_aVwfWrf6C6MiM_-12" value="&lt;b&gt;Approve&lt;/b&gt;" style="rounded=1;whiteSpace=wrap;html=1;" vertex="1" parent="1">
          <mxGeometry x="600" y="280" width="120" height="40" as="geometry" />
        </mxCell>
        <mxCell id="0X2j5_aVwfWrf6C6MiM_-13" value="&lt;b&gt;Reject&lt;/b&gt;" style="rounded=1;whiteSpace=wrap;html=1;" vertex="1" parent="1">
          <mxGeometry x="600" y="370" width="120" height="40" as="geometry" />
        </mxCell>
        <mxCell id="0X2j5_aVwfWrf6C6MiM_-14" value="&lt;b&gt;History Check&lt;/b&gt;" style="rounded=1;whiteSpace=wrap;html=1;" vertex="1" parent="1">
          <mxGeometry x="600" y="450" width="120" height="40" as="geometry" />
        </mxCell>
        <mxCell id="0X2j5_aVwfWrf6C6MiM_-15" edge="1" parent="1" source="0X2j5_aVwfWrf6C6MiM_-2" target="0X2j5_aVwfWrf6C6MiM_-5">
          <mxGeometry relative="1" as="geometry">
            <Array as="points">
              <mxPoint x="50" y="130" />
            </Array>
          </mxGeometry>
        </mxCell>
        <mxCell id="0X2j5_aVwfWrf6C6MiM_-16" edge="1" parent="1" source="0X2j5_aVwfWrf6C6MiM_-2" target="0X2j5_aVwfWrf6C6MiM_-6">
          <mxGeometry relative="1" as="geometry">
            <Array as="points">
              <mxPoint x="50" y="210" />
            </Array>
          </mxGeometry>
        </mxCell>
        <mxCell id="0X2j5_aVwfWrf6C6MiM_-17" edge="1" parent="1" source="0X2j5_aVwfWrf6C6MiM_-2" target="0X2j5_aVwfWrf6C6MiM_-7">
          <mxGeometry relative="1" as="geometry">
            <Array as="points">
              <mxPoint x="70" y="300" />
            </Array>
          </mxGeometry>
        </mxCell>
        <mxCell id="0X2j5_aVwfWrf6C6MiM_-18" edge="1" parent="1" source="0X2j5_aVwfWrf6C6MiM_-2" target="0X2j5_aVwfWrf6C6MiM_-8">
          <mxGeometry relative="1" as="geometry">
            <Array as="points">
              <mxPoint x="45" y="390" />
            </Array>
          </mxGeometry>
        </mxCell>
        <mxCell id="0X2j5_aVwfWrf6C6MiM_-19" edge="1" parent="1" source="0X2j5_aVwfWrf6C6MiM_-2" target="0X2j5_aVwfWrf6C6MiM_-9">
          <mxGeometry relative="1" as="geometry">
            <Array as="points">
              <mxPoint x="45" y="470" />
            </Array>
          </mxGeometry>
        </mxCell>
        <mxCell id="0X2j5_aVwfWrf6C6MiM_-20" style="exitX=0.5;exitY=0;exitDx=0;exitDy=0;" edge="1" parent="1" source="0X2j5_aVwfWrf6C6MiM_-3" target="0X2j5_aVwfWrf6C6MiM_-10">
          <mxGeometry relative="1" as="geometry">
            <mxPoint x="860" y="140" as="sourcePoint" />
            <Array as="points">
              <mxPoint x="825" y="130" />
            </Array>
          </mxGeometry>
        </mxCell>
        <mxCell id="0X2j5_aVwfWrf6C6MiM_-21" edge="1" parent="1" target="0X2j5_aVwfWrf6C6MiM_-11">
          <mxGeometry relative="1" as="geometry">
            <mxPoint x="800" y="210" as="sourcePoint" />
            <Array as="points" />
          </mxGeometry>
        </mxCell>
        <mxCell id="0X2j5_aVwfWrf6C6MiM_-22" edge="1" parent="1" source="0X2j5_aVwfWrf6C6MiM_-4" target="0X2j5_aVwfWrf6C6MiM_-12">
          <mxGeometry relative="1" as="geometry">
            <Array as="points">
              <mxPoint x="825" y="300" />
            </Array>
          </mxGeometry>
        </mxCell>
        <mxCell id="0X2j5_aVwfWrf6C6MiM_-23" style="exitX=0.03;exitY=0.59;exitDx=0;exitDy=0;exitPerimeter=0;" edge="1" parent="1" source="0X2j5_aVwfWrf6C6MiM_-4" target="0X2j5_aVwfWrf6C6MiM_-13">
          <mxGeometry relative="1" as="geometry" />
        </mxCell>
        <mxCell id="0X2j5_aVwfWrf6C6MiM_-24" edge="1" parent="1" source="0X2j5_aVwfWrf6C6MiM_-4" target="0X2j5_aVwfWrf6C6MiM_-14">
          <mxGeometry relative="1" as="geometry">
            <Array as="points">
              <mxPoint x="825" y="470" />
            </Array>
          </mxGeometry>
        </mxCell>
        <mxCell id="0X2j5_aVwfWrf6C6MiM_-27" style="entryX=0;entryY=0.5;entryDx=0;entryDy=0;" edge="1" parent="1" source="0X2j5_aVwfWrf6C6MiM_-7" target="0X2j5_aVwfWrf6C6MiM_-1">
          <mxGeometry relative="1" as="geometry">
            <mxPoint x="360" y="300" as="targetPoint" />
          </mxGeometry>
        </mxCell>
        <mxCell id="0X2j5_aVwfWrf6C6MiM_-32" edge="1" parent="1" source="0X2j5_aVwfWrf6C6MiM_-12" target="0X2j5_aVwfWrf6C6MiM_-1">
          <mxGeometry relative="1" as="geometry" />
        </mxCell>
        <mxCell id="0X2j5_aVwfWrf6C6MiM_-35" value="" style="endArrow=none;html=1;rounded=0;" edge="1" parent="1">
          <mxGeometry width="50" height="50" relative="1" as="geometry">
            <mxPoint x="270" y="210" as="sourcePoint" />
            <mxPoint x="340" y="210" as="targetPoint" />
          </mxGeometry>
        </mxCell>
        <mxCell id="0X2j5_aVwfWrf6C6MiM_-36" value="" style="endArrow=none;html=1;rounded=0;" edge="1" parent="1">
          <mxGeometry width="50" height="50" relative="1" as="geometry">
            <mxPoint x="270" y="129.38" as="sourcePoint" />
            <mxPoint x="340" y="129.38" as="targetPoint" />
          </mxGeometry>
        </mxCell>
        <mxCell id="0X2j5_aVwfWrf6C6MiM_-37" value="" style="endArrow=none;html=1;rounded=0;" edge="1" parent="1">
          <mxGeometry width="50" height="50" relative="1" as="geometry">
            <mxPoint x="270" y="389.38" as="sourcePoint" />
            <mxPoint x="340" y="389.38" as="targetPoint" />
          </mxGeometry>
        </mxCell>
        <mxCell id="0X2j5_aVwfWrf6C6MiM_-38" value="" style="endArrow=none;html=1;rounded=0;" edge="1" parent="1">
          <mxGeometry width="50" height="50" relative="1" as="geometry">
            <mxPoint x="270" y="469.37" as="sourcePoint" />
            <mxPoint x="340" y="469.37" as="targetPoint" />
          </mxGeometry>
        </mxCell>
        <mxCell id="0X2j5_aVwfWrf6C6MiM_-39" value="" style="endArrow=none;html=1;rounded=0;" edge="1" parent="1">
          <mxGeometry width="50" height="50" relative="1" as="geometry">
            <mxPoint x="340" y="129.38" as="sourcePoint" />
            <mxPoint x="340" y="470" as="targetPoint" />
          </mxGeometry>
        </mxCell>
        <mxCell id="0X2j5_aVwfWrf6C6MiM_-40" value="" style="endArrow=none;html=1;rounded=0;" edge="1" parent="1">
          <mxGeometry width="50" height="50" relative="1" as="geometry">
            <mxPoint x="560" y="210" as="sourcePoint" />
            <mxPoint x="600" y="130" as="targetPoint" />
            <Array as="points">
              <mxPoint x="560" y="130" />
            </Array>
          </mxGeometry>
        </mxCell>
        <mxCell id="0X2j5_aVwfWrf6C6MiM_-41" value="" style="endArrow=none;html=1;rounded=0;entryX=0;entryY=0.5;entryDx=0;entryDy=0;" edge="1" parent="1" target="0X2j5_aVwfWrf6C6MiM_-11">
          <mxGeometry width="50" height="50" relative="1" as="geometry">
            <mxPoint x="560" y="300" as="sourcePoint" />
            <mxPoint x="570" y="200" as="targetPoint" />
            <Array as="points">
              <mxPoint x="560" y="210" />
            </Array>
          </mxGeometry>
        </mxCell>
        <mxCell id="0X2j5_aVwfWrf6C6MiM_-42" value="" style="endArrow=none;html=1;rounded=0;entryX=0;entryY=0.5;entryDx=0;entryDy=0;" edge="1" parent="1" target="0X2j5_aVwfWrf6C6MiM_-13">
          <mxGeometry width="50" height="50" relative="1" as="geometry">
            <mxPoint x="560" y="300" as="sourcePoint" />
            <mxPoint x="610" y="220" as="targetPoint" />
            <Array as="points">
              <mxPoint x="560" y="390" />
            </Array>
          </mxGeometry>
        </mxCell>
        <mxCell id="0X2j5_aVwfWrf6C6MiM_-43" value="" style="endArrow=none;html=1;rounded=0;entryX=0;entryY=0.5;entryDx=0;entryDy=0;" edge="1" parent="1" target="0X2j5_aVwfWrf6C6MiM_-14">
          <mxGeometry width="50" height="50" relative="1" as="geometry">
            <mxPoint x="560" y="390" as="sourcePoint" />
            <mxPoint x="610" y="400" as="targetPoint" />
            <Array as="points">
              <mxPoint x="560" y="470" />
            </Array>
          </mxGeometry>
        </mxCell>
      </root>
    </mxGraphModel>
  </diagram>
</mxfile>
